<svg width="60" height="61" viewBox="0 0 60 61" fill="none" xmlns="http://www.w3.org/2000/svg">
<path opacity="0.2" d="M0 10C0 4.47715 4.47715 0 10 0H50C55.5228 0 60 4.47715 60 10V51C60 56.5228 55.5228 61 50 61H10C4.47715 61 0 56.5228 0 51V10Z" fill="#FF4100"/>
<path d="M43.3792 42.4032C43.3792 42.9371 42.9463 43.3699 42.4124 43.3699H38.8571C38.3232 43.3699 37.8903 42.9371 37.8903 42.4032V38.8461C37.8903 38.3122 38.3232 37.8793 38.8571 37.8793C39.391 37.8793 39.8239 38.3122 39.8239 38.8461V40.0653C39.8661 40.024 39.9084 39.983 39.95 39.9413C45.4371 34.4548 45.4375 25.5591 39.9511 20.072C34.4646 14.585 25.5689 14.5845 20.0818 20.071C14.5948 25.5576 14.5948 34.4537 20.0818 39.9403C23.912 43.7721 29.4756 45.0559 34.6016 43.2907C35.1064 43.1168 35.6566 43.3851 35.8304 43.89C36.0043 44.3948 35.736 44.945 35.2311 45.1188C27.5414 47.7788 19.08 44.2435 15.5685 36.9034C12.057 29.5634 14.614 20.7568 21.5105 16.4387C28.407 12.1206 37.446 13.6666 42.5154 20.0312C47.5848 26.3959 47.0696 35.5517 41.3183 41.3075C41.275 41.3509 41.2309 41.3937 41.1871 41.4364H42.4124C42.9463 41.4364 43.3792 41.8692 43.3792 42.4032ZM30.9832 40.3741V37.5526C30.9832 37.0186 30.5504 36.5858 30.0165 36.5858C29.4825 36.5858 29.0497 37.0186 29.0497 37.5526V40.3741C24.0775 39.9143 20.1077 35.9445 19.6478 30.9722H22.4692C23.0032 30.9722 23.436 30.5394 23.436 30.0055C23.436 29.4716 23.0032 29.0387 22.4692 29.0387H19.6478C20.1077 24.0665 24.0775 20.0967 29.0497 19.6368V22.4602C29.0497 22.9941 29.4825 23.427 30.0165 23.427C30.5504 23.427 30.9832 22.9941 30.9832 22.4602V19.6368C35.9554 20.0967 39.9252 24.0665 40.3851 29.0387H37.5621C37.0282 29.0387 36.5954 29.4716 36.5954 30.0055C36.5954 30.5394 37.0282 30.9722 37.5621 30.9722H40.3851C39.9252 35.9445 35.9554 39.9143 30.9832 40.3741ZM31.6922 32.0903C32.1545 32.3575 32.7458 32.1993 33.0129 31.737C33.2801 31.2747 33.1219 30.6834 32.6596 30.4162L30.9832 29.4476V25.6901C30.9832 25.1562 30.5504 24.7233 30.0165 24.7233C29.4825 24.7233 29.0497 25.1562 29.0497 25.6901V30.0054C29.0497 30.3505 29.2339 30.6695 29.5329 30.8423L31.6922 32.0903Z" fill="#FF4100"/>
</svg>
