<svg xmlns="http://www.w3.org/2000/svg" xmlns:xlink="http://www.w3.org/1999/xlink" width="24.535" height="24.536" viewBox="0 0 24.535 24.536">
  <defs>
    <clipPath id="clip-path">
      <path id="path105" d="M0-682.665H24.535v24.536H0Z" transform="translate(0 682.665)"/>
    </clipPath>
  </defs>
  <g id="g99" transform="translate(0 682.665)">
    <g id="g101" transform="translate(0 -682.665)">
      <g id="g103" transform="translate(0 0)" clip-path="url(#clip-path)">
        <g id="g109" transform="translate(1.587 16.857)">
          <path id="path111" d="M-572.969,0V5.881a1.438,1.438,0,0,1-1.438,1.438h-18.485a1.438,1.438,0,0,1-1.438-1.438v-2" transform="translate(594.329)" fill="none" stroke="#000" stroke-linecap="round" stroke-linejoin="round" stroke-miterlimit="10" stroke-width="1"/>
        </g>
        <g id="g113" transform="translate(1.587 2.002)">
          <path id="path115" d="M-429.5-556.23h-14.572a1.44,1.44,0,0,1-1.44-1.44v-17.857a1.44,1.44,0,0,1,1.44-1.44h18.48a1.44,1.44,0,0,1,1.44,1.44v13.948a1.44,1.44,0,0,1-.422,1.018l-3.909,3.909A1.44,1.44,0,0,1-429.5-556.23Z" transform="translate(445.511 576.967)" fill="none" stroke="#000" stroke-linecap="round" stroke-linejoin="round" stroke-miterlimit="10" stroke-width="1"/>
        </g>
        <g id="g117" transform="translate(17.009 16.8)">
          <path id="path119" d="M0-159.3a1.18,1.18,0,0,0,1.18-1.18v-2.4a1.18,1.18,0,0,1,1.18-1.18h2.4a1.18,1.18,0,0,0,1.18-1.18" transform="translate(0 165.237)" fill="none" stroke="#000" stroke-linecap="round" stroke-linejoin="round" stroke-miterlimit="10" stroke-width="1"/>
        </g>
        <g id="g121" transform="translate(1.587 7.138)">
          <path id="path123" d="M-113.982,0h-4.249" transform="translate(118.232)" fill="none" stroke="#000" stroke-linecap="round" stroke-linejoin="round" stroke-miterlimit="10" stroke-width="1"/>
        </g>
        <g id="g125" transform="translate(7.274 7.138)">
          <path id="path127" d="M-420.424,0H-436.1" transform="translate(436.098)" fill="none" stroke="#000" stroke-linecap="round" stroke-linejoin="round" stroke-miterlimit="10" stroke-width="1"/>
        </g>
        <g id="g129" transform="translate(4.924 0.359)">
          <path id="path131" d="M-19.676-101.718a.734.734,0,0,1-.734-.734v-2.325a.734.734,0,0,1,.734-.734h.165a.734.734,0,0,1,.734.734v.909" transform="translate(20.409 105.51)" fill="none" stroke="#000" stroke-linecap="round" stroke-linejoin="round" stroke-miterlimit="10" stroke-width="1"/>
        </g>
        <g id="g133" transform="translate(17.98 0.359)">
          <path id="path135" d="M-19.676-101.718a.734.734,0,0,1-.734-.734v-2.325a.734.734,0,0,1,.734-.734h.165a.734.734,0,0,1,.734.734v.909" transform="translate(20.409 105.51)" fill="none" stroke="#000" stroke-linecap="round" stroke-linejoin="round" stroke-miterlimit="10" stroke-width="1"/>
        </g>
        <g id="g137" transform="translate(3.744 9.294)">
          <path id="path139" d="M-55.089-64.27H-56.8a.342.342,0,0,1-.342-.342v-1.711a.342.342,0,0,1,.342-.342h1.711a.342.342,0,0,1,.342.342v1.711A.342.342,0,0,1-55.089-64.27Z" transform="translate(57.143 66.667)" fill="none" stroke="#000" stroke-linecap="round" stroke-linejoin="round" stroke-miterlimit="10" stroke-width="1"/>
        </g>
        <g id="g141" transform="translate(8.628 9.294)">
          <path id="path143" d="M-55.089-64.27H-56.8a.342.342,0,0,1-.342-.342v-1.711a.342.342,0,0,1,.342-.342h1.711a.342.342,0,0,1,.342.342v1.711A.342.342,0,0,1-55.089-64.27Z" transform="translate(57.143 66.667)" fill="none" stroke="#000" stroke-linecap="round" stroke-linejoin="round" stroke-miterlimit="10" stroke-width="1"/>
        </g>
        <g id="g145" transform="translate(13.512 9.294)">
          <path id="path147" d="M-55.089-64.27H-56.8a.342.342,0,0,1-.342-.342v-1.711a.342.342,0,0,1,.342-.342h1.711a.342.342,0,0,1,.342.342v1.711A.342.342,0,0,1-55.089-64.27Z" transform="translate(57.143 66.667)" fill="none" stroke="#000" stroke-linecap="round" stroke-linejoin="round" stroke-miterlimit="10" stroke-width="1"/>
        </g>
        <g id="g149" transform="translate(18.396 9.294)">
          <path id="path151" d="M-55.089-64.27H-56.8a.342.342,0,0,1-.342-.342v-1.711a.342.342,0,0,1,.342-.342h1.711a.342.342,0,0,1,.342.342v1.711A.342.342,0,0,1-55.089-64.27Z" transform="translate(57.143 66.667)" fill="none" stroke="#000" stroke-linecap="round" stroke-linejoin="round" stroke-miterlimit="10" stroke-width="1"/>
        </g>
        <g id="g153" transform="translate(3.744 13.74)">
          <path id="path155" d="M-55.089-64.27H-56.8a.342.342,0,0,1-.342-.342v-1.711a.342.342,0,0,1,.342-.342h1.711a.342.342,0,0,1,.342.342v1.711A.342.342,0,0,1-55.089-64.27Z" transform="translate(57.143 66.667)" fill="none" stroke="#000" stroke-linecap="round" stroke-linejoin="round" stroke-miterlimit="10" stroke-width="1"/>
        </g>
        <g id="g157" transform="translate(8.628 13.74)">
          <path id="path159" d="M-55.089-64.27H-56.8a.342.342,0,0,1-.342-.342v-1.711a.342.342,0,0,1,.342-.342h1.711a.342.342,0,0,1,.342.342v1.711A.342.342,0,0,1-55.089-64.27Z" transform="translate(57.143 66.667)" fill="none" stroke="#000" stroke-linecap="round" stroke-linejoin="round" stroke-miterlimit="10" stroke-width="1"/>
        </g>
        <g id="g161" transform="translate(13.512 13.74)">
          <path id="path163" d="M-55.089-64.27H-56.8a.342.342,0,0,1-.342-.342v-1.711a.342.342,0,0,1,.342-.342h1.711a.342.342,0,0,1,.342.342v1.711A.342.342,0,0,1-55.089-64.27Z" transform="translate(57.143 66.667)" fill="none" stroke="#000" stroke-linecap="round" stroke-linejoin="round" stroke-miterlimit="10" stroke-width="1"/>
        </g>
        <g id="g165" transform="translate(18.396 13.847)">
          <path id="path167" d="M-55.089-64.27H-56.8a.342.342,0,0,1-.342-.342v-1.711a.342.342,0,0,1,.342-.342h1.711a.342.342,0,0,1,.342.342v1.711A.342.342,0,0,1-55.089-64.27Z" transform="translate(57.143 66.667)" fill="none" stroke="#000" stroke-linecap="round" stroke-linejoin="round" stroke-miterlimit="10" stroke-width="1"/>
        </g>
        <g id="g169" transform="translate(3.744 18.186)">
          <path id="path171" d="M-55.089-64.27H-56.8a.342.342,0,0,1-.342-.342v-1.711a.342.342,0,0,1,.342-.342h1.711a.342.342,0,0,1,.342.342v1.711A.342.342,0,0,1-55.089-64.27Z" transform="translate(57.143 66.667)" fill="none" stroke="#000" stroke-linecap="round" stroke-linejoin="round" stroke-miterlimit="10" stroke-width="1"/>
        </g>
        <g id="g173" transform="translate(8.628 18.186)">
          <path id="path175" d="M-55.089-64.27H-56.8a.342.342,0,0,1-.342-.342v-1.711a.342.342,0,0,1,.342-.342h1.711a.342.342,0,0,1,.342.342v1.711A.342.342,0,0,1-55.089-64.27Z" transform="translate(57.143 66.667)" fill="none" stroke="#000" stroke-linecap="round" stroke-linejoin="round" stroke-miterlimit="10" stroke-width="1"/>
        </g>
        <g id="g177" transform="translate(13.512 18.186)">
          <path id="path179" d="M0-22.42v-.494a.342.342,0,0,1,.342-.342H2.054a.342.342,0,0,1,.342.342V-21.2a.342.342,0,0,1-.342.342H.342A.342.342,0,0,1,0-21.2" transform="translate(0 23.256)" fill="none" stroke="#000" stroke-linecap="round" stroke-linejoin="round" stroke-miterlimit="10" stroke-width="1"/>
        </g>
      </g>
    </g>
  </g>
</svg>
