<svg id="clock_1_" data-name="clock (1)" xmlns="http://www.w3.org/2000/svg" width="14.125" height="14.125" viewBox="0 0 14.125 14.125">
  <g id="Group_160" data-name="Group 160" transform="translate(6.515 3.277)">
    <g id="Group_159" data-name="Group 159">
      <path id="Path_157" data-name="Path 157" d="M239.232,123.812l-1.969-1.477v-3.009a.547.547,0,0,0-1.094,0v3.282a.546.546,0,0,0,.219.438l2.188,1.641a.547.547,0,0,0,.656-.875Z" transform="translate(-236.169 -118.779)" fill="#191717"/>
    </g>
  </g>
  <g id="Group_162" data-name="Group 162">
    <g id="Group_161" data-name="Group 161">
      <path id="Path_158" data-name="Path 158" d="M7.062,0a7.062,7.062,0,1,0,7.062,7.062A7.07,7.07,0,0,0,7.062,0Zm0,13.031a5.968,5.968,0,1,1,5.968-5.968A5.976,5.976,0,0,1,7.062,13.031Z" fill="#191717"/>
    </g>
  </g>
</svg>
