<svg id="clock_1_" data-name="clock (1)" xmlns="http://www.w3.org/2000/svg" width="22" height="22" viewBox="0 0 22 22">
  <g id="Group_160" data-name="Group 160" transform="translate(10.148 5.104)">
    <g id="Group_159" data-name="Group 159">
      <path id="Path_157" data-name="Path 157" d="M240.941,126.618l-3.067-2.3v-4.686a.852.852,0,0,0-1.7,0v5.112a.85.85,0,0,0,.341.682l3.408,2.556a.852.852,0,0,0,1.023-1.363Z" transform="translate(-236.169 -118.779)" fill="#ff4100"/>
    </g>
  </g>
  <g id="Group_162" data-name="Group 162">
    <g id="Group_161" data-name="Group 161">
      <path id="Path_158" data-name="Path 158" d="M11,0A11,11,0,1,0,22,11,11.012,11.012,0,0,0,11,0Zm0,20.3A9.3,9.3,0,1,1,20.3,11,9.307,9.307,0,0,1,11,20.3Z" fill="#ff4100"/>
    </g>
  </g>
</svg>
