<svg xmlns="http://www.w3.org/2000/svg" width="38.61" height="38.008" viewBox="0 0 38.61 38.008">
  <g id="comments" transform="translate(0 0)">
    <path id="Path_147" data-name="Path 147" d="M118.312,4h-21.5a5.113,5.113,0,0,0-5.1,5.1v1.735h19.446a5.113,5.113,0,0,1,5.1,5.1v12.71h2.051a5.113,5.113,0,0,0,5.1-5.1V9.094a5.113,5.113,0,0,0-5.1-5.1Z" transform="translate(-84.8 -3.996)" fill="#ff4100"/>
    <path id="Path_148" data-name="Path 148" d="M114.7,91.515H93.2a5.055,5.055,0,0,0-1.484.222v.011h19.446a5.113,5.113,0,0,1,5.1,5.1v12.71h2.051a5.055,5.055,0,0,0,1.484-.222V96.613A5.113,5.113,0,0,0,114.7,91.515Z" transform="translate(-84.8 -84.915)" fill="#ce3400"/>
    <path id="Path_149" data-name="Path 149" d="M26.6,91.515H5.1a5.113,5.113,0,0,0-5.1,5.1v14.445a5.113,5.113,0,0,0,5.1,5.1H18a.86.86,0,0,1,.84,1.053,21.6,21.6,0,0,1-1.64,4.576.784.784,0,0,0,1.115,1.015,28.761,28.761,0,0,0,7.032-6.057,1.612,1.612,0,0,1,1.249-.587,5.113,5.113,0,0,0,5.1-5.1V96.613a5.113,5.113,0,0,0-5.1-5.1Z" transform="translate(0 -84.915)" fill="#ff4100"/>
    <path id="Path_150" data-name="Path 150" d="M231.993,419.33a.86.86,0,0,0-.84-1.053h-3.3a.86.86,0,0,1,.84,1.053,21.6,21.6,0,0,1-1.64,4.576.784.784,0,0,0,1.115,1.015c.745-.461,1.611-1.042,2.527-1.743a21.523,21.523,0,0,0,1.3-3.848Z" transform="translate(-209.851 -387.036)" fill="#ce3400"/>
    <path id="Path_151" data-name="Path 151" d="M3.3,111.058V96.613a5.113,5.113,0,0,1,5.1-5.1H5.1a5.113,5.113,0,0,0-5.1,5.1v14.445a5.113,5.113,0,0,0,5.1,5.1H8.4a5.113,5.113,0,0,1-5.1-5.1Z" transform="translate(0 -84.915)" fill="#ce3400"/>
    <g id="Group_158" data-name="Group 158" transform="translate(5.375 17.644)">
      <ellipse id="Ellipse_30" data-name="Ellipse 30" cx="1.692" cy="1.692" rx="1.692" ry="1.692" transform="translate(0)" fill="#fff"/>
      <path id="Path_156" data-name="Path 156" d="M1.692,0A1.692,1.692,0,1,1,0,1.692,1.692,1.692,0,0,1,1.692,0Z" transform="translate(5.464)" fill="#fff"/>
      <ellipse id="Ellipse_32" data-name="Ellipse 32" cx="1.692" cy="1.692" rx="1.692" ry="1.692" transform="translate(10.928)" fill="#fff"/>
      <ellipse id="Ellipse_33" data-name="Ellipse 33" cx="1.692" cy="1.692" rx="1.692" ry="1.692" transform="translate(16.393)" fill="#fff"/>
    </g>
    <path id="Path_152" data-name="Path 152" d="M72.972,239.655a1.691,1.691,0,0,1,.846-1.465,1.692,1.692,0,1,0,0,2.93A1.691,1.691,0,0,1,72.972,239.655Z" transform="translate(-65.905 -220.319)" fill="#fcfcfc"/>
    <path id="Path_153" data-name="Path 153" d="M145.432,239.655a1.691,1.691,0,0,1,.846-1.465,1.692,1.692,0,1,0,0,2.93A1.691,1.691,0,0,1,145.432,239.655Z" transform="translate(-132.9 -220.319)" fill="#fcfcfc"/>
    <path id="Path_154" data-name="Path 154" d="M217.891,239.655a1.691,1.691,0,0,1,.846-1.465,1.692,1.692,0,1,0,0,2.93A1.691,1.691,0,0,1,217.891,239.655Z" transform="translate(-199.895 -220.319)" fill="#fcfcfc"/>
    <path id="Path_155" data-name="Path 155" d="M290.351,239.655a1.691,1.691,0,0,1,.846-1.465,1.692,1.692,0,1,0,0,2.93A1.691,1.691,0,0,1,290.351,239.655Z" transform="translate(-266.891 -220.319)" fill="#fcfcfc"/>
  </g>
</svg>
