<svg width="60" height="61" viewBox="0 0 60 61" fill="none" xmlns="http://www.w3.org/2000/svg">
<path opacity="0.2" d="M0 10C0 4.47715 4.47715 0 10 0H50C55.5228 0 60 4.47715 60 10V51C60 56.5228 55.5228 61 50 61H10C4.47715 61 0 56.5228 0 51V10Z" fill="#FF4100"/>
<path fill-rule="evenodd" clip-rule="evenodd" d="M33.2287 43.0762C33.2287 41.9702 32.3321 41.0735 31.2261 41.0735H28.7739C28.2428 41.0735 27.7334 41.2845 27.3578 41.6601C26.9822 42.0357 26.7712 42.545 26.7712 43.0762C26.7712 44.1822 27.6679 45.0788 28.7739 45.0788H31.2261C32.3321 45.0788 33.2287 44.1822 33.2287 43.0762ZM18.2101 37.9122C18.5446 37.9378 18.9492 37.9525 19.3557 37.9287C19.5723 39.0269 20.1103 40.0455 20.9134 40.8487C21.9795 41.9147 23.4254 42.5137 24.9331 42.5137H25.6972C25.6636 42.698 25.6462 42.8862 25.6462 43.0762C25.6462 43.2682 25.6636 43.4563 25.6967 43.6387H24.9331C23.1271 43.6387 21.3949 42.9212 20.1179 41.6442C19.0991 40.6253 18.4364 39.3169 18.2101 37.9122ZM17.6378 36.7152C16.7496 36.5654 15.9231 36.1432 15.2779 35.4979C14.4597 34.6797 14 33.5699 14 32.4127V29.7537C14 28.5965 14.4597 27.4867 15.2779 26.6685C16.0962 25.8502 17.206 25.3905 18.3632 25.3905H18.6536C19.1179 19.5307 24.0205 14.9199 30 14.9199C35.9795 14.9199 40.8821 19.5307 41.3464 25.3905H41.6368C42.794 25.3905 43.9038 25.8502 44.7221 26.6685C45.5403 27.4867 46 28.5965 46 29.7537V32.4127C46 33.5699 45.5403 34.6797 44.7221 35.4979C43.9038 36.3162 42.794 36.7759 41.6368 36.7759H40.3492C39.8152 36.7759 39.3824 36.343 39.3824 35.809V26.3023C39.3824 21.1205 35.1817 16.9199 30 16.9199C24.8182 16.9199 20.6176 21.1205 20.6176 26.3023V35.809C20.6176 36.186 20.4018 36.5127 20.0869 36.6722C19.2202 36.9729 17.876 36.7554 17.6378 36.7152Z" fill="#FF4100"/>
</svg>
