<svg xmlns="http://www.w3.org/2000/svg" width="27.972" height="26.497" viewBox="0 0 27.972 26.497">
  <g id="delivered" transform="translate(0.15 0.161)">
    <path id="Path_2056" data-name="Path 2056" d="M23.906.989a.407.407,0,0,0-.318.75,5.379,5.379,0,1,1-1.458-.386.407.407,0,0,0,.1-.809,6.194,6.194,0,0,0-5.794,9.706H7.9a.69.69,0,0,0-.689.689v5.266l-.765,1.5a1.253,1.253,0,0,1-.673.606A1.044,1.044,0,0,0,4.733,17.25H3.163a1.045,1.045,0,0,0-1.044,1.085H1.11A1.111,1.111,0,0,0,0,19.445v.493a.407.407,0,0,0,.814,0v-.493a.3.3,0,0,1,.3-.3H2.119v5.635H1.11a.3.3,0,0,1-.3-.3V21.566a.407.407,0,1,0-.814,0v2.923A1.11,1.11,0,0,0,1.11,25.6H2.119a1.046,1.046,0,0,0,1.044,1.085h1.57a1.044,1.044,0,0,0,1-.763c.5.134-.878.081,17.34.081a.762.762,0,0,0,.761-.761V12.418A6.2,6.2,0,0,0,23.906.989ZM4.962,21.943v3.7a.232.232,0,0,1-.229.23H3.163a.233.233,0,0,1-.229-.23V18.294a.233.233,0,0,1,.229-.23h1.57a.232.232,0,0,1,.229.23ZM12.4,11.064h3.1v3.194L14.3,13.314a.561.561,0,0,0-.691,0l-1.206.944Zm-.094,14.121c-6.462,0-6.148.043-6.53-.107V19.162A2.076,2.076,0,0,0,7.214,18l.924-1.815c.135-.27.9.412.538,1.117l-.393.772a.782.782,0,0,0,.7,1.136l5.1,0a.462.462,0,0,1,.465.448.443.443,0,0,1-.44.436H10.922a.407.407,0,1,0,0,.814h4.751a.5.5,0,0,1,.452.371.4.4,0,0,1-.419.511H10.887a.407.407,0,1,0,0,.814h4.081a.442.442,0,0,1,.295.754.436.436,0,0,1-.312.129l-4.455,0a.407.407,0,1,0,0,.814c1.938,0,1.949-.043,2.122.129a.443.443,0,0,1-.312.754Zm10.718,0H20.69V17.362a.407.407,0,1,0-.814,0v7.826h-6.4a1.238,1.238,0,0,0,.005-.886h1.467A1.256,1.256,0,0,0,16.1,22.545a1.233,1.233,0,0,0,.471-2.065,1.541,1.541,0,0,0-1.3-.387,1.263,1.263,0,0,0-1.2-1.7l-5.046,0,.369-.725c.619-1.217-.451-2.56-1.373-2.34V11.064h3.558v3.714a.562.562,0,0,0,.561.561c.251,0,.2-.006,1.8-1.261,1.583,1.238,1.548,1.261,1.8,1.261a.562.562,0,0,0,.562-.561V11.064h.8a6.143,6.143,0,0,0,2.756,1.6v3.071a.407.407,0,0,0,.814,0V12.824a6.266,6.266,0,0,0,2.335-.138Zm0,0" transform="translate(-0.001 -0.498)" fill="#292424" stroke="#292424" stroke-width="0.3"/>
    <path id="Path_2057" data-name="Path 2057" d="M335.443,69.474a.365.365,0,1,0-.546.484l1.47,1.659a.712.712,0,0,0,1.064,0l3.375-3.788a.365.365,0,0,0-.545-.485L336.9,71.118Zm0,0" transform="translate(-315.719 -63.991)" fill="#292424" stroke="#292424" stroke-width="0.3"/>
  </g>
</svg>
