<svg xmlns="http://www.w3.org/2000/svg" width="19.592" height="19.593" viewBox="0 0 19.592 19.593">
  <g id="discount_1_" data-name="discount (1)" transform="translate(-0.01 0)">
    <g id="Group_129" data-name="Group 129" transform="translate(7.147 5.948)">
      <g id="Group_128" data-name="Group 128">
        <circle id="Ellipse_25" data-name="Ellipse 25" cx="0.875" cy="0.875" r="0.875" fill="#bbb"/>
      </g>
    </g>
    <g id="Group_131" data-name="Group 131" transform="translate(10.715 11.895)">
      <g id="Group_130" data-name="Group 130">
        <circle id="Ellipse_26" data-name="Ellipse 26" cx="0.875" cy="0.875" r="0.875" fill="#bbb"/>
      </g>
    </g>
    <g id="Group_133" data-name="Group 133" transform="translate(0.01 0)">
      <g id="Group_132" data-name="Group 132" transform="translate(0)">
        <path id="Path_135" data-name="Path 135" d="M18.7,9.8l.86-2.242a.613.613,0,0,0-.186-.7L17.512,5.348l-.377-2.372a.612.612,0,0,0-.509-.508l-2.372-.377L12.744.226A.613.613,0,0,0,12.05.04L9.806.9,7.564.041A.611.611,0,0,0,6.87.227L5.359,2.092l-2.372.377a.613.613,0,0,0-.508.508L2.1,5.349.237,6.86a.613.613,0,0,0-.186.694L.911,9.8l-.86,2.242a.611.611,0,0,0,.186.694L2.1,14.243l.377,2.372a.612.612,0,0,0,.508.509l2.372.377L6.87,19.365a.609.609,0,0,0,.7.186l2.241-.858,2.242.86a.613.613,0,0,0,.7-.187l1.51-1.864,2.372-.377a.613.613,0,0,0,.509-.509l.377-2.372,1.864-1.51a.611.611,0,0,0,.186-.694ZM7.97,4.9A1.837,1.837,0,1,1,6.133,6.735,1.839,1.839,0,0,1,7.97,4.9Zm3.673,9.8a1.837,1.837,0,1,1,1.837-1.837A1.839,1.839,0,0,1,11.643,14.694Zm1.724-8.828L7.244,14.439a.613.613,0,0,1-.5.256.612.612,0,0,1-.5-.969L12.37,5.155a.612.612,0,0,1,1,.711Z" transform="translate(-0.01 0)" fill="#bbb"/>
      </g>
    </g>
  </g>
</svg>
