<svg xmlns="http://www.w3.org/2000/svg" width="28.015" height="28.016" viewBox="0 0 28.015 28.016">
  <path id="Path_135" data-name="Path 135" d="M26.738,14.009,27.967,10.8a.877.877,0,0,0-.266-.995L25.036,7.648,24.5,4.256a.875.875,0,0,0-.728-.727L20.377,2.99,18.218.324a.877.877,0,0,0-.993-.266L14.018,1.288,10.812.059a.873.873,0,0,0-.993.266L7.659,2.992l-3.391.539a.877.877,0,0,0-.727.727L3,7.649.335,9.81a.876.876,0,0,0-.266.993L1.3,14.009.069,17.214a.873.873,0,0,0,.266.993L3,20.366l.539,3.391a.875.875,0,0,0,.727.728l3.391.539L9.819,27.69a.871.871,0,0,0,.995.266l3.2-1.227,3.206,1.229a.876.876,0,0,0,.995-.268l2.159-2.665,3.391-.539a.877.877,0,0,0,.728-.728l.539-3.391L27.7,18.207a.874.874,0,0,0,.266-.993Zm-15.347-7A2.626,2.626,0,1,1,8.765,9.631,2.63,2.63,0,0,1,11.392,7.005Zm5.253,14.007a2.626,2.626,0,1,1,2.626-2.626A2.63,2.63,0,0,1,16.644,21.012ZM19.11,8.388,10.353,20.646a.877.877,0,0,1-.713.366.875.875,0,0,1-.711-1.385L17.684,7.371A.876.876,0,0,1,19.11,8.388Z" transform="translate(-0.01 0)" fill="#c3d61b"/>
</svg>
