<svg xmlns="http://www.w3.org/2000/svg" width="17.899" height="13.125" viewBox="0 0 17.899 13.125">
  <g id="fast-forward_1_" data-name="fast-forward (1)" transform="translate(0 0)" opacity="0.8">
    <g id="Group_2841" data-name="Group 2841" transform="translate(0 0)">
      <g id="Group_2840" data-name="Group 2840" transform="translate(0 0)">
        <path id="Path_2106" data-name="Path 2106" d="M208.153,70.177l5.369-5.966a.6.6,0,0,1,.444-.2h3.58a.6.6,0,0,1,.444,1l-5.01,5.567,5.01,5.566a.6.6,0,0,1-.444,1h-3.58a.6.6,0,0,1-.444-.2l-5.369-5.966A.6.6,0,0,1,208.153,70.177Z" transform="translate(-208 -64.013)"/>
      </g>
    </g>
    <g id="Group_2843" data-name="Group 2843" transform="translate(7.756 0)">
      <g id="Group_2842" data-name="Group 2842" transform="translate(0 0)">
        <path id="Path_2107" data-name="Path 2107" d="M.153,70.177l5.369-5.966a.6.6,0,0,1,.444-.2h3.58a.6.6,0,0,1,.444,1l-5.01,5.567,5.01,5.566a.6.6,0,0,1-.444,1H5.966a.6.6,0,0,1-.444-.2L.153,70.975A.6.6,0,0,1,.153,70.177Z" transform="translate(0 -64.013)"/>
      </g>
    </g>
  </g>
</svg>
