<svg xmlns="http://www.w3.org/2000/svg" width="21.196" height="21.349" viewBox="0 0 21.196 21.349">
  <g id="ingredient" transform="translate(-5.808 -3.998)">
    <path id="Path_2063" data-name="Path 2063" d="M26.5,224.777H17.841a2.009,2.009,0,0,0-.85-1.484,1.243,1.243,0,0,0-.786-.143,1.936,1.936,0,0,0-1.035-1.272,1.288,1.288,0,0,0-1.358.071,2.072,2.072,0,0,0-1.976-.853,1.3,1.3,0,0,0-1.151,1.02,1.932,1.932,0,0,0,.8,1.838,1.081,1.081,0,0,0-.228.824H6.316a.509.509,0,0,0-.508.506,7.366,7.366,0,0,0,1.535,4.689,5.283,5.283,0,0,0,4.023,1.731,1.777,1.777,0,0,0,1.756,1.524H19.69a1.777,1.777,0,0,0,1.756-1.524,5.283,5.283,0,0,0,4.023-1.731A7.366,7.366,0,0,0,27,225.283a.509.509,0,0,0-.508-.506Zm-14.476-.651a.254.254,0,0,0-.014-.424,1.52,1.52,0,0,1-.824-1.485.791.791,0,0,1,.728-.619,1.616,1.616,0,0,1,1.627.866.253.253,0,0,0,.438.03.735.735,0,0,1,.979-.156,1.483,1.483,0,0,1,.8,1.143.253.253,0,0,0,.351.213.778.778,0,0,1,.64.045,1.5,1.5,0,0,1,.577,1.038H15.609a15.728,15.728,0,0,1-2.758-1.789.254.254,0,1,0-.337.381,13.321,13.321,0,0,0,2.037,1.408H11.773a.626.626,0,0,1,.247-.651Zm7.67,8.592H13.122a1.268,1.268,0,0,1-1.24-1.012H20.93a1.268,1.268,0,0,1-1.24,1.012Zm5.4-3.08a4.883,4.883,0,0,1-3.876,1.56H11.6a4.883,4.883,0,0,1-3.876-1.56,5.958,5.958,0,0,1-1.261-2.8H22.093a.254.254,0,1,0,0-.508H6.385a8.237,8.237,0,0,1-.069-1.048H26.5a8.232,8.232,0,0,1-.069,1.049H24.042a.254.254,0,1,0,0,.508h2.3a5.958,5.958,0,0,1-1.261,2.8Z" transform="translate(0 -207.879)" fill="#fff"/>
    <path id="Path_2064" data-name="Path 2064" d="M282.4,131.227a3.667,3.667,0,0,0,1.416-.479,2.78,2.78,0,0,0,1.529-2.221h0v0a4.679,4.679,0,0,0-.992-3.31l0,0-.013-.013a.251.251,0,0,0-.212-.072.247.247,0,0,0-.183.128h0l-.008.015a5.09,5.09,0,0,1-1.307,1.242,4.851,4.851,0,0,0-.391.329,5.128,5.128,0,0,0-3.319.313.256.256,0,0,0-.148.226,4.09,4.09,0,0,0,.43,1.739,3.919,3.919,0,0,0,3.2,2.111Zm-1.879-4,.16.841c-.4-.214-.795-.45-1.083-.626a5.7,5.7,0,0,1,.924-.216Zm-.856,1.683a3.7,3.7,0,0,1-.338-1.037,16.662,16.662,0,0,0,1.942,1.047,3.338,3.338,0,0,0,.583,1.684,3.248,3.248,0,0,1-2.186-1.695Zm3.917,1.389a3.86,3.86,0,0,1-.629.279c.192-.361.36-.721.5-1.072a6.364,6.364,0,0,0,1.27-.5A2.358,2.358,0,0,1,283.578,130.3Zm1.266-1.943a5.828,5.828,0,0,1-1.159.547,13.386,13.386,0,0,0,.662-2.767A4.227,4.227,0,0,1,284.844,128.353Zm-1.914-1.439a9.915,9.915,0,0,0,.9-.756,12.752,12.752,0,0,1-1.425,4.358,2.76,2.76,0,0,1-.618-1.9A2.6,2.6,0,0,1,282.93,126.914Zm-1.084.343a2.648,2.648,0,0,0-.537,1.125l-.06-.028-.223-1.175a3.24,3.24,0,0,1,.821.077Z" transform="translate(-261.396 -115.992)" fill="#fff"/>
    <path id="Path_2065" data-name="Path 2065" d="M8.5,201.247a1.889,1.889,0,1,0-1.889-1.889A1.891,1.891,0,0,0,8.5,201.247Zm0-3.27a1.381,1.381,0,1,1-1.381,1.381A1.382,1.382,0,0,1,8.5,197.977Z" transform="translate(-0.766 -185.276)" fill="#fff"/>
    <path id="Path_2066" data-name="Path 2066" d="M33.969,225.591a.762.762,0,1,0-.762-.762A.763.763,0,0,0,33.969,225.591Zm0-1.017a.254.254,0,1,1-.254.254A.254.254,0,0,1,33.969,224.574Z" transform="translate(-26.238 -210.746)" fill="#fff"/>
    <path id="Path_2067" data-name="Path 2067" d="M203.515,173.968a.762.762,0,1,0-.762-.762A.763.763,0,0,0,203.515,173.968Zm0-1.017a.254.254,0,1,1-.254.254A.254.254,0,0,1,203.515,172.951Z" transform="translate(-188.603 -161.31)" fill="#fff"/>
    <path id="Path_2068" data-name="Path 2068" d="M456.357,149.683a.762.762,0,1,0,.762.762A.763.763,0,0,0,456.357,149.683Zm0,1.017a.254.254,0,1,1,.254-.254A.254.254,0,0,1,456.357,150.7Z" transform="translate(-430.734 -139.514)" fill="#fff"/>
    <path id="Path_2069" data-name="Path 2069" d="M418.886,33.87A1.889,1.889,0,1,0,417,31.981,1.891,1.891,0,0,0,418.886,33.87Zm0-3.27a1.381,1.381,0,1,1-1.381,1.381A1.382,1.382,0,0,1,418.886,30.6Z" transform="translate(-393.771 -24.989)" fill="#fff"/>
    <path id="Path_2070" data-name="Path 2070" d="M444.357,58.215a.762.762,0,1,0-.763-.762A.763.763,0,0,0,444.357,58.215Zm0-1.017a.254.254,0,1,1-.254.254A.254.254,0,0,1,444.357,57.2Z" transform="translate(-419.243 -50.46)" fill="#fff"/>
    <path id="Path_2071" data-name="Path 2071" d="M97.123,101.079a1.766,1.766,0,0,0-1.2,1.221,1.633,1.633,0,0,0,.4,1.4,1.1,1.1,0,0,0,1.238.139c.044.48.1,1.215.807,1.217a.929.929,0,0,0,.654-.271c.5-.5.02-1.055-.283-1.427a1.1,1.1,0,0,0,.786-.966,1.633,1.633,0,0,0-.692-1.279,1.766,1.766,0,0,0-1.712-.03Zm1.434.455a1.119,1.119,0,0,1,.462.866c.005.229-.245.424-.767.6h0a.253.253,0,0,0-.137.113.256.256,0,0,0,.014.276c.076.111.165.22.251.325.362.442.418.582.289.712a.418.418,0,0,1-.3.122c-.183,0-.241-.141-.293-.71-.013-.138-.026-.28-.05-.414a.255.255,0,0,0-.364-.183c-.491.243-.807.28-.964.112a1.119,1.119,0,0,1-.277-.941,1.691,1.691,0,0,1,2.138-.874Z" transform="translate(-86.268 -92.779)" fill="#fff"/>
    <path id="Path_2072" data-name="Path 2072" d="M305.9,21.251l-.026.036c-.277.374-.7.94-.189,1.4a.929.929,0,0,0,.676.24c.686-.04.717-.743.738-1.208l0-.044a1.8,1.8,0,0,0,.546.1.857.857,0,0,0,.683-.294,1.633,1.633,0,0,0,.336-1.415,2.17,2.17,0,0,0-2.966-1.052,1.633,1.633,0,0,0-.631,1.31,1.1,1.1,0,0,0,.83.928Zm.1-1.827a1.691,1.691,0,0,1,2.177.772,1.119,1.119,0,0,1-.232.953c-.149.175-.466.153-.969-.067a.256.256,0,0,0-.355.207c-.017.133-.023.274-.029.41-.025.571-.076.713-.259.723a.419.419,0,0,1-.3-.108c-.136-.124-.086-.266.255-.725.082-.111.167-.226.239-.342a.255.255,0,0,0-.15-.379c-.528-.146-.788-.329-.793-.558a1.119,1.119,0,0,1,.421-.886Z" transform="translate(-286.584 -14.122)" fill="#fff"/>
    <path id="Path_2073" data-name="Path 2073" d="M53.8,7a2.17,2.17,0,0,0,2.066-2.828.254.254,0,0,0-.319-.165L51.9,5.173a.254.254,0,0,0-.165.319A2.173,2.173,0,0,0,53.8,7Zm.7-2.127a.7.7,0,0,1-1.249.4l1.249-.4Zm-1.753.558a1.212,1.212,0,0,0,2.257-.719l.435-.139a1.662,1.662,0,0,1-3.129,1l.436-.139Z" transform="translate(-43.968)" fill="#fff"/>
    <path id="Path_2074" data-name="Path 2074" d="M453.427,224.928a.254.254,0,0,0-.251.043,1.266,1.266,0,0,0,.368,2.162.254.254,0,0,0,.251-.043,1.266,1.266,0,0,0-.368-2.162Zm.153,1.659a.756.756,0,1,1,.154-.6A.761.761,0,0,1,453.58,226.586Z" transform="translate(-427.979 -211.556)" fill="#fff"/>
    <path id="Path_2075" data-name="Path 2075" d="M215.016,83.189a1.266,1.266,0,0,0,1.462-1.635.254.254,0,0,0-.19-.17,1.266,1.266,0,0,0-1.462,1.635A.254.254,0,0,0,215.016,83.189Zm.448-1.071a.339.339,0,1,1-.188.589A.761.761,0,0,1,215.464,82.118Z" transform="translate(-200.105 -74.082)" fill="#fff"/>
    <path id="Path_2076" data-name="Path 2076" d="M23.858,114.978h.01a.254.254,0,0,0,.215-.119,1.266,1.266,0,0,0-1.021-1.941.254.254,0,0,0-.226.119,1.266,1.266,0,0,0,1.021,1.941Zm-.661-1.529a.756.756,0,0,1,.525,1,.756.756,0,0,1-.525-1Z" transform="translate(-16.121 -104.306)" fill="#fff"/>
    <path id="Path_2077" data-name="Path 2077" d="M469.328,459.115a.254.254,0,0,0-.359.359l.3.3a.254.254,0,1,0,.359-.359Z" transform="translate(-443.47 -435.768)" fill="#fff"/>
    <path id="Path_2078" data-name="Path 2078" d="M478.131,438.381h-.425a.254.254,0,0,0,0,.508h.425a.254.254,0,0,0,0-.508Z" transform="translate(-451.666 -415.983)" fill="#fff"/>
    <path id="Path_2079" data-name="Path 2079" d="M447.966,468.12a.254.254,0,0,0-.254.254v.425a.254.254,0,1,0,.508,0v-.425A.254.254,0,0,0,447.966,468.12Z" transform="translate(-423.185 -444.462)" fill="#fff"/>
    <circle id="Ellipse_183" data-name="Ellipse 183" cx="0.254" cy="0.254" r="0.254" transform="translate(22.813 18.454)" fill="#fff"/>
  </g>
</svg>
