<svg id="Group_146" data-name="Group 146" xmlns="http://www.w3.org/2000/svg" xmlns:xlink="http://www.w3.org/1999/xlink" width="50.568" height="30.041" viewBox="0 0 50.568 30.041">
  <defs>
    <clipPath id="clip-path">
      <rect id="Rectangle_63" data-name="Rectangle 63" width="50.568" height="30.041" fill="#ff4100"/>
    </clipPath>
  </defs>
  <g id="Group_145" data-name="Group 145" clip-path="url(#clip-path)">
    <path id="Path_140" data-name="Path 140" d="M88.733,94.051a.926.926,0,0,1-.658.013q-.187-.112-.187-.485V92.534q.572-.2,1.02-.311a9.059,9.059,0,0,1,1.044-.186V89.974a8.661,8.661,0,0,0-2.313.51A3.321,3.321,0,0,0,86.1,91.627a3.44,3.44,0,0,0-.547,2.051,4.871,4.871,0,0,0,.037.646,4.269,4.269,0,0,0,.111.547l-.895.249v1.79l5.867-1.566V93.529Z" transform="translate(-77.672 -82.405)" fill="#ff4100"/>
    <path id="Path_141" data-name="Path 141" d="M22.223,108.253v4.474H4.45a4.9,4.9,0,0,1-2.511-.584,3.448,3.448,0,0,1-1.467-1.815A8.883,8.883,0,0,1,0,107.184a16.011,16.011,0,0,1,.2-2.536,16.2,16.2,0,0,1,.6-2.461l3.828.6a10.683,10.683,0,0,0-.484,1.616,7.587,7.587,0,0,0-.162,1.566,9.531,9.531,0,0,0,.074,1.267,4.866,4.866,0,0,0,.249,1.02H16.008V97.066h3.977v11.187Z" transform="translate(0 -88.9)" fill="#ff4100"/>
    <path id="Path_142" data-name="Path 142" d="M251.828,162.1a1.552,1.552,0,0,1-.895-.373,4.185,4.185,0,0,1-.87-.882,1.587,1.587,0,0,1-.373-.882,1.531,1.531,0,0,1,.36-.882,3.946,3.946,0,0,1,.858-.845,1.581,1.581,0,0,1,.895-.36,1.552,1.552,0,0,1,.907.36,4.082,4.082,0,0,1,.845.845,1.553,1.553,0,0,1,.36.907,1.535,1.535,0,0,1-.373.87,4.5,4.5,0,0,1-.858.87,1.482,1.482,0,0,1-.858.373m-1.914-6.065v-4.475h3.729v-7.209h3.977v11.684Zm6.662,6.065a1.552,1.552,0,0,1-.895-.373,4.186,4.186,0,0,1-.87-.882,1.587,1.587,0,0,1-.373-.882,1.529,1.529,0,0,1,.36-.882,3.936,3.936,0,0,1,.858-.845,1.581,1.581,0,0,1,.895-.36,1.552,1.552,0,0,1,.907.36,4.086,4.086,0,0,1,.845.845,1.554,1.554,0,0,1,.36.907,1.536,1.536,0,0,1-.373.87,4.5,4.5,0,0,1-.858.87,1.483,1.483,0,0,1-.858.373" transform="translate(-228.685 -132.204)" fill="#ff4100"/>
    <path id="Path_143" data-name="Path 143" d="M403.413,15.911a3.95,3.95,0,0,1-.1,1.8,8.212,8.212,0,0,1-3.334,4.682,8.7,8.7,0,0,1-2.573,1.094,11.738,11.738,0,0,1-2.809.335H385.32V0H389.3V19.352h5.568a7.082,7.082,0,0,0,2.051-.261,4.194,4.194,0,0,0,1.429-.721,4.048,4.048,0,0,0,.945-1.081c.04-.067.08-.136.117-.205a3.419,3.419,0,0,0-1.073-.566,6.842,6.842,0,0,0-2.1-.273q-.7,0-1.517.037t-1.74.162l-.6-4.4q1.044-.124,1.976-.2t1.777-.075a12.447,12.447,0,0,1,3.443.41,5.894,5.894,0,0,1,2.349,1.268,4.436,4.436,0,0,1,1.488,2.463" transform="translate(-352.905)" fill="#ff4100"/>
    <path id="Path_144" data-name="Path 144" d="M517.426,308.071a4.064,4.064,0,0,0-.845-.845,1.549,1.549,0,0,0-.907-.361,1.579,1.579,0,0,0-.895.361,3.927,3.927,0,0,0-.858.845,1.53,1.53,0,0,0-.36.883,1.589,1.589,0,0,0,.373.883,4.186,4.186,0,0,0,.87.882,1.552,1.552,0,0,0,.895.373,1.482,1.482,0,0,0,.858-.373,4.486,4.486,0,0,0,.858-.87,1.535,1.535,0,0,0,.373-.87,1.555,1.555,0,0,0-.361-.907" transform="translate(-470.358 -281.05)" fill="#ff4100"/>
    <rect id="Rectangle_62" data-name="Rectangle 62" width="35.702" height="3.977" fill="#ff4100"/>
  </g>
</svg>
