<svg xmlns="http://www.w3.org/2000/svg" xmlns:xlink="http://www.w3.org/1999/xlink" width="56.328" height="56.328" viewBox="0 0 56.328 56.328">
  <defs>
    <clipPath id="clip-path">
      <path id="path3407" d="M0-682.665H56.328v56.328H0Z" transform="translate(0 682.665)" fill="#ff4100"/>
    </clipPath>
  </defs>
  <g id="g3393" transform="translate(0 682.665)">
    <g id="g3395" transform="translate(27.804 -650.099)">
      <path id="path3397" d="M-61.043,0h-5.49" transform="translate(66.533)" fill="none" stroke="#ff4100" stroke-linecap="round" stroke-linejoin="round" stroke-miterlimit="10" stroke-width="1.16"/>
    </g>
    <g id="g3399" transform="translate(39.14 -672.186)">
      <path id="path3401" d="M0,0,1.8,4.107" fill="none" stroke="#ff4100" stroke-linecap="round" stroke-linejoin="round" stroke-miterlimit="10" stroke-width="1.16"/>
    </g>
    <g id="g3403" transform="translate(0 -682.665)">
      <g id="g3405" clip-path="url(#clip-path)">
        <g id="g3411" transform="translate(24.769 36.176)">
          <path id="path3413" d="M-52.2-18.231a2.353,2.353,0,0,0-2.27-1.64,2.413,2.413,0,0,0-1.729.725,2.408,2.408,0,0,0-.691,1.543,2.41,2.41,0,0,0,.319,1.365" transform="translate(56.893 19.871)" fill="none" stroke="#ff4100" stroke-linecap="round" stroke-linejoin="round" stroke-miterlimit="10" stroke-width="1.16"/>
        </g>
        <g id="g3415" transform="translate(17.553 29.605)">
          <path id="path3417" d="M0-85.256l7.1-7.667" transform="translate(0 92.924)" fill="none" stroke="#ff4100" stroke-linecap="round" stroke-linejoin="round" stroke-miterlimit="10" stroke-width="1.16"/>
        </g>
        <g id="g3419" transform="translate(42.797 19.961)">
          <path id="path3421" d="M-25.376,0h2.917a1.044,1.044,0,0,1,1.041,1.04v4.7a1.044,1.044,0,0,1-1.041,1.04h-2.917A3.379,3.379,0,0,1-27.659,5.9V.887A3.379,3.379,0,0,1-25.376,0Z" transform="translate(27.659)" fill="none" stroke="#ff4100" stroke-linecap="round" stroke-linejoin="round" stroke-miterlimit="10" stroke-width="1.16"/>
        </g>
        <g id="g3423" transform="translate(24.652 20.619)">
          <path id="path3425" d="M-165.678-40.778v5.319h-14.9v-5.987C-177.986-45.822-165.678-45.248-165.678-40.778Z" transform="translate(180.578 44.446)" fill="none" stroke="#ff4100" stroke-linecap="round" stroke-linejoin="round" stroke-miterlimit="10" stroke-width="1.16"/>
        </g>
        <g id="g3427" transform="translate(1.13 21.769)">
          <path id="path3429" d="M-184.38-20.559h6.94v5.987h-20.927a2.3,2.3,0,0,1-2.595-2.271v-3.482A1.991,1.991,0,0,1-198.6-22.4l1.5-.006c1.326.006,1.885,1.78,3.23,1.849H-188" transform="translate(200.962 22.408)" fill="none" stroke="#ff4100" stroke-linecap="round" stroke-linejoin="round" stroke-miterlimit="10" stroke-width="1.16"/>
        </g>
        <g id="g3431" transform="translate(42.419 40.32)">
          <path id="path3433" d="M-82.7,0a3.929,3.929,0,0,1,.444,1.821,3.939,3.939,0,0,1-3.939,3.938,3.942,3.942,0,0,1-3.942-3.938A3.933,3.933,0,0,1-89.69,0" transform="translate(90.137 0)" fill="none" stroke="#ff4100" stroke-linecap="round" stroke-linejoin="round" stroke-miterlimit="10" stroke-width="1.16"/>
        </g>
        <g id="g3435" transform="translate(38.493 40.32)">
          <path id="path3437" d="M-172.63,0a7.933,7.933,0,0,1,.213,1.821,7.865,7.865,0,0,1-7.869,7.861,7.865,7.865,0,0,1-7.869-7.861A7.761,7.761,0,0,1-187.943,0h.106" transform="translate(188.156)" fill="none" stroke="#ff4100" stroke-linecap="round" stroke-linejoin="round" stroke-miterlimit="10" stroke-width="1.16"/>
        </g>
        <g id="g3439" transform="translate(33.845 14.567)">
          <path id="path3441" d="M-99.547-172.32l5.049,10.79a1.529,1.529,0,0,1-2.654,1.518l-5.64-11.746v-12.683l-4.114-.24a1.568,1.568,0,1,1,.028-3.136l5.477.019a1.8,1.8,0,0,1,1.638,1.077,1.758,1.758,0,0,1,.216.874Z" transform="translate(108.5 187.817)" fill="none" stroke="#ff4100" stroke-linecap="round" stroke-linejoin="round" stroke-miterlimit="10" stroke-width="1.16"/>
        </g>
        <g id="g3443" transform="translate(37.356 32.396)">
          <path id="path3445" d="M-113.9-88.116h6.418c1.844,0,1.616-1.615,1.175-2.63-1.913-4.419-6.934-5.953-11.189-5.044m-2.948,1.112a7.5,7.5,0,0,0-3.42,3.932c-.375,1.037-.669,2.63,1.175,2.63h5.4" transform="translate(124.143 96.04)" fill="none" stroke="#ff4100" stroke-linecap="round" stroke-linejoin="round" stroke-miterlimit="10" stroke-width="1.16"/>
        </g>
        <g id="g3447" transform="translate(34.003 6.326)">
          <path id="path3449" d="M-10.846-.127l4.161.775a1.056,1.056,0,0,1,.978.974V3.04a.979.979,0,0,1-.978.974h-4.161a.976.976,0,0,1-.975-.974V.851C-11.821.314-11.374-.223-10.846-.127Z" transform="translate(11.821 0.138)" fill="none" stroke="#ff4100" stroke-linecap="round" stroke-linejoin="round" stroke-miterlimit="10" stroke-width="1.16"/>
        </g>
        <g id="g3451" transform="translate(9.646 29.605)">
          <path id="path3453" d="M-135.087-151.1l-12.149.013m29.906-12.7-8.391,10.965a3.269,3.269,0,0,1-2.854,1.718h-3.245m-13.112-3.385h14.822a1.9,1.9,0,0,0,1.938-.956l6.74-9.248" transform="translate(147.236 164.69)" fill="none" stroke="#ff4100" stroke-linecap="round" stroke-linejoin="round" stroke-miterlimit="10" stroke-width="1.16"/>
        </g>
        <g id="g3455" transform="translate(1.674 39.793)">
          <path id="path3457" d="M-174.2-37.887a7.867,7.867,0,0,1-7.8,6.8,7.865,7.865,0,0,1-7.869-7.861,7.866,7.866,0,0,1,.356-2.349" transform="translate(189.861 41.295)" fill="none" stroke="#ff4100" stroke-linecap="round" stroke-linejoin="round" stroke-miterlimit="10" stroke-width="1.16"/>
        </g>
        <g id="g3459" transform="translate(5.601 39.793)">
          <path id="path3461" d="M-86.037-37.923a3.943,3.943,0,0,1-3.8,2.876,3.942,3.942,0,0,1-3.942-3.938A3.922,3.922,0,0,1-93-41.333a3.922,3.922,0,0,0-.778,2.349" transform="translate(93.774 41.333)" fill="none" stroke="#ff4100" stroke-linecap="round" stroke-linejoin="round" stroke-miterlimit="10" stroke-width="1.16"/>
        </g>
        <g id="g3463" transform="translate(0.825 32.387)">
          <path id="path3465" d="M-123.741-82.347h4.68l.907.012c.835.009.3-1.883.012-2.533a7.585,7.585,0,0,0-4.1-4.051m-3.711-.825c-3.9-.162-7.847,1.658-8.716,4.875-.275,1.021-.5,2.6,1.007,2.52h6.149" transform="translate(134.869 89.753)" fill="none" stroke="#ff4100" stroke-linecap="round" stroke-linejoin="round" stroke-miterlimit="10" stroke-width="1.16"/>
        </g>
        <g id="g3467" transform="translate(7.912 29.605)">
          <path id="path3469" d="M-.478-125.09,1.9-136.34H5.844l-2.71,11.89A1.843,1.843,0,1,1-.478-125.09Z" transform="translate(0.521 136.34)" fill="none" stroke="#ff4100" stroke-linecap="round" stroke-linejoin="round" stroke-miterlimit="10" stroke-width="1.16"/>
        </g>
      </g>
    </g>
  </g>
</svg>
