<svg width="60" height="61" viewBox="0 0 60 61" fill="none" xmlns="http://www.w3.org/2000/svg">
<g id="Group 106">
<path id="Rectangle 52" opacity="0.2" d="M0 10C0 4.47715 4.47715 0 10 0H50C55.5228 0 60 4.47715 60 10V51C60 56.5228 55.5228 61 50 61H10C4.47715 61 0 56.5228 0 51V10Z" fill="#FF4100"/>
<g id="user (2)">
<path id="Path 15" d="M29.8127 29.4574C31.7762 29.4574 33.4762 28.7532 34.8657 27.3638C36.2547 25.9745 36.9591 24.2748 36.9591 22.311C36.9591 20.348 36.2549 18.6479 34.8654 17.2583C33.476 15.8693 31.776 15.165 29.8127 15.165C27.8489 15.165 26.1491 15.8693 24.7599 17.2585C23.3707 18.6477 22.6663 20.3477 22.6663 22.311C22.6663 24.2748 23.3707 25.9748 24.7599 27.364C26.1496 28.753 27.8496 29.4574 29.8127 29.4574ZM25.9896 18.4879C27.0555 17.4219 28.306 16.9038 29.8127 16.9038C31.3192 16.9038 32.5698 17.4219 33.636 18.4879C34.702 19.5541 35.2204 20.8048 35.2204 22.311C35.2204 23.8177 34.702 25.0682 33.636 26.1344C32.5698 27.2006 31.3192 27.7187 29.8127 27.7187C28.3064 27.7187 27.056 27.2003 25.9896 26.1344C24.9234 25.0684 24.405 23.8177 24.405 22.311C24.405 20.8048 24.9234 19.5541 25.9896 18.4879Z" fill="#FF4100"/>
<path id="Path 16" d="M42.317 37.9802C42.277 37.402 42.1959 36.7714 42.0766 36.1054C41.9562 35.4344 41.8011 34.8001 41.6155 34.2205C41.4236 33.6212 41.163 33.0295 40.8404 32.4624C40.5061 31.8739 40.1131 31.3614 39.6722 30.9397C39.211 30.4985 38.6465 30.1438 37.9936 29.885C37.3431 29.6276 36.6221 29.4973 35.8508 29.4973C35.548 29.4973 35.255 29.6215 34.6894 29.9899C34.3412 30.2169 33.934 30.4795 33.4794 30.7699C33.0907 31.0175 32.5642 31.2496 31.9139 31.4597C31.2794 31.665 30.6351 31.769 29.999 31.769C29.3634 31.769 28.7191 31.665 28.0842 31.4597C27.4345 31.2498 26.9077 31.0178 26.5197 30.7701C26.0695 30.4824 25.662 30.2198 25.3087 29.9896C24.7434 29.6213 24.4505 29.4971 24.1476 29.4971C23.3762 29.4971 22.6554 29.6276 22.0051 29.8853C21.3527 30.1435 20.7879 30.4983 20.3263 30.9399C19.8854 31.3618 19.4924 31.8741 19.1583 32.4624C18.8361 33.0295 18.5754 33.621 18.3834 34.2206C18.198 34.8004 18.0429 35.4344 17.9225 36.1054C17.803 36.7704 17.7222 37.4013 17.6821 37.9808C17.6427 38.5474 17.6228 39.1371 17.6228 39.7329C17.6228 41.2817 18.1152 42.5356 19.086 43.4602C20.0449 44.3728 21.3135 44.8355 22.8566 44.8355H37.1432C38.6858 44.8355 39.9544 44.3728 40.9135 43.4602C41.8846 42.5363 42.377 41.2819 42.377 39.7327C42.3768 39.1349 42.3567 38.5452 42.317 37.9802ZM39.7147 42.2006C39.0811 42.8036 38.2399 43.0967 37.1429 43.0967H22.8567C21.7595 43.0967 20.9183 42.8036 20.2849 42.2008C19.6635 41.6093 19.3616 40.8018 19.3616 39.7329C19.3616 39.1769 19.3799 38.6281 19.4166 38.101C19.4523 37.584 19.5255 37.0161 19.6339 36.4126C19.741 35.8166 19.8772 35.2572 20.0393 34.7508C20.1948 34.2652 20.4069 33.7844 20.67 33.3213C20.921 32.8799 21.2099 32.5011 21.5286 32.196C21.8267 31.9106 22.2025 31.677 22.6453 31.5017C23.0548 31.3397 23.515 31.2509 24.0145 31.2376C24.0754 31.2699 24.1839 31.3317 24.3595 31.4463C24.717 31.6792 25.129 31.945 25.5844 32.2359C26.0978 32.5632 26.7593 32.8588 27.5495 33.1139C28.3574 33.3752 29.1814 33.5078 29.9993 33.5078C30.8171 33.5078 31.6413 33.3752 32.4488 33.1142C33.2397 32.8586 33.9009 32.5632 34.415 32.2354C34.8811 31.9375 35.2815 31.6794 35.639 31.4463C35.8146 31.332 35.9231 31.2699 35.984 31.2375C36.4838 31.2509 36.944 31.3397 37.3537 31.5017C37.7963 31.677 38.172 31.9108 38.4702 32.196C38.7889 32.5009 39.0777 32.8797 39.3288 33.3215C39.592 33.7844 39.8044 34.2655 39.9597 34.7506C40.122 35.2576 40.2585 35.8168 40.3653 36.4123C40.4735 37.0169 40.5468 37.5852 40.5826 38.1013C40.6195 38.6262 40.6381 39.1754 40.6383 39.7329C40.6381 40.802 40.3361 41.6093 39.7147 42.2006Z" fill="#FF4100"/>
</g>
</g>
</svg>
