<svg id="price-tag" xmlns="http://www.w3.org/2000/svg" width="14.989" height="16.251" viewBox="0 0 14.989 16.251">
  <g id="Group_2796" data-name="Group 2796" transform="translate(0 0)">
    <g id="Group_2795" data-name="Group 2795" transform="translate(0 0)">
      <path id="Path_2058" data-name="Path 2058" d="M34.779,12.5,32.225,7.044a.238.238,0,0,0-.431.2L34.348,12.7a.49.49,0,0,1-.236.651l-4.9,2.294a.49.49,0,0,1-.651-.236l-.916-1.956L30.032,7.7a.968.968,0,0,0-.016-.775l-1.3-2.816,1.69.535a.49.49,0,0,1,.3.259l.626,1.336a.238.238,0,1,0,.431-.2L31.129,4.7a.967.967,0,0,0-.583-.511l-2.038-.645a12.5,12.5,0,0,0,1.015-1.8c.4-.964.077-1.5-.358-1.68S28.123.036,27.724,1a11.336,11.336,0,0,0-.441,2.091,1.346,1.346,0,0,0-.4.086L23.8,4.355a.97.97,0,0,0-.547.532l-3.3,7.958a.965.965,0,0,0,.522,1.261l.965.4a.238.238,0,0,0,.182-.44l-.965-.4a.489.489,0,0,1-.265-.639l3.3-7.958a.491.491,0,0,1,.277-.27l3.083-1.178a.878.878,0,0,1,.161-.044c-.029.224-.053.419-.071.566a.8.8,0,1,0,.466.117c.018-.152.045-.375.079-.635a.881.881,0,0,1,.481.451l1.413,3.052a.491.491,0,0,1,.008.393l-3.3,7.952a.489.489,0,0,1-.639.265l-2.945-1.221a.238.238,0,0,0-.182.44l2.945,1.221a.965.965,0,0,0,1.261-.522l.666-1.606.731,1.562a.966.966,0,0,0,1.284.465l4.9-2.294A.967.967,0,0,0,34.779,12.5ZM27.5,5.058a.328.328,0,1,1-.011-.251A.326.326,0,0,1,27.5,5.058ZM28.1,3.3a1.375,1.375,0,0,0-.343-.156,10.909,10.909,0,0,1,.408-1.963c.108-.261.4-.848.819-.677s.208.8.1,1.057A11.858,11.858,0,0,1,28.1,3.3Z" transform="translate(-19.881 0.001)" fill="#191717"/>
    </g>
  </g>
  <g id="Group_2798" data-name="Group 2798" transform="translate(2.633 7.294)">
    <g id="Group_2797" data-name="Group 2797" transform="translate(0)">
      <path id="Path_2059" data-name="Path 2059" d="M104.47,230.535a2.188,2.188,0,0,1,3.216,1.932.238.238,0,0,0,.238.238h0a.238.238,0,0,0,.238-.238,2.685,2.685,0,0,0-.512-1.571,2.663,2.663,0,1,0,.256,2.708.238.238,0,1,0-.431-.2,2.2,2.2,0,0,1-2.617,1.157,2.188,2.188,0,0,1-.389-4.023Z" transform="translate(-102.833 -229.802)" fill="#191717"/>
    </g>
  </g>
  <g id="Group_2800" data-name="Group 2800" transform="translate(4.333 8.508)">
    <g id="Group_2799" data-name="Group 2799" transform="translate(0)">
      <path id="Path_2060" data-name="Path 2060" d="M158.287,268.839a.451.451,0,0,0-.268-.221l-.108-.033.073-.241a.238.238,0,1,0-.455-.139l-.075.246a.648.648,0,0,0-.3,1.259l.3.091a.173.173,0,0,1-.1.33l-.15-.046-.316-.1a.238.238,0,0,0-.461-.118.455.455,0,0,0,.3.567l.108.033-.073.241a.238.238,0,1,0,.455.139l.075-.246a.652.652,0,0,0,.111.01.649.649,0,0,0,.189-1.269l-.3-.091a.173.173,0,0,1,.1-.33l.15.046h0l.316.1a.238.238,0,0,0,.461.118A.451.451,0,0,0,158.287,268.839Z" transform="translate(-156.407 -268.037)" fill="#191717"/>
    </g>
  </g>
  <g id="Group_2802" data-name="Group 2802" transform="translate(11.344 9.112)">
    <g id="Group_2801" data-name="Group 2801" transform="translate(0)">
      <path id="Path_2061" data-name="Path 2061" d="M379.262,290.444l-1.524-3.238a.238.238,0,0,0-.431.2l1.524,3.238a.238.238,0,1,0,.431-.2Z" transform="translate(-377.285 -287.07)" fill="#191717"/>
    </g>
  </g>
  <g id="Group_2804" data-name="Group 2804" transform="translate(10.28 9.681)">
    <g id="Group_2803" data-name="Group 2803">
      <path id="Path_2062" data-name="Path 2062" d="M345.725,308.38l-1.524-3.238a.238.238,0,1,0-.431.2l1.524,3.238a.238.238,0,0,0,.431-.2Z" transform="translate(-343.748 -305.005)" fill="#191717"/>
    </g>
  </g>
</svg>
