<svg xmlns="http://www.w3.org/2000/svg" width="24.025" height="22.001" viewBox="0 0 24.025 22.001">
  <g id="history" transform="translate(0.024 -1)">
    <path id="Path_128" data-name="Path 128" d="M13.1,1A10.927,10.927,0,0,0,2.566,9.223L1.834,8.116a1,1,0,1,0-1.668,1.1l2.2,3.334A1.084,1.084,0,0,0,3,12.975a1.024,1.024,0,0,0,.756-.145l3.3-2.223A1,1,0,1,0,5.941,8.948L4.44,9.96a8.966,8.966,0,1,1,1.379,7.218,1,1,0,1,0-1.64,1.143A10.881,10.881,0,0,0,24,12,10.963,10.963,0,0,0,13.1,1Z" fill="#ff4100"/>
    <path id="Path_129" data-name="Path 129" d="M13,5.95a1,1,0,0,0-1,1V12a1.04,1.04,0,0,0,.293.707l3,3.027a1.013,1.013,0,0,0,1.414.007,1,1,0,0,0,.006-1.414L14,11.589V6.95a1,1,0,0,0-1-1Z" fill="#ff4100"/>
  </g>
</svg>
