<svg id="noun_Trash_3513304" xmlns="http://www.w3.org/2000/svg" width="13.818" height="15.182" viewBox="0 0 13.818 15.182">
  <g id="Group_251" data-name="Group 251" transform="translate(0 0)">
    <g id="Group_250" data-name="Group 250" transform="translate(0)">
      <path id="Path_1196" data-name="Path 1196" d="M192.058,273.455v.177a.629.629,0,0,1,.025.2v6.832a3.139,3.139,0,0,1-.936,2.227,3.178,3.178,0,0,1-2.227.911h-4.757a3.178,3.178,0,0,1-2.227-.911,3.139,3.139,0,0,1-.936-2.227v-6.832a.629.629,0,0,1,.025-.2v-.2a.515.515,0,0,1,.506-.43h10.02A.518.518,0,0,1,192.058,273.455Zm-.987,7.212v-6.655h-9.059v6.655a2.125,2.125,0,0,0,.633,1.493,2.081,2.081,0,0,0,1.518.633h4.757a2.081,2.081,0,0,0,1.518-.633A2.125,2.125,0,0,0,191.071,280.667Z" transform="translate(-179.634 -268.622)" fill="#fff" fill-rule="evenodd"/>
      <path id="Path_1197" data-name="Path 1197" d="M130.872,156h6.073a3.871,3.871,0,0,1,2.581.962,3.957,3.957,0,0,1,1.291,2.429h0v.025a.526.526,0,0,1-.455.557H127.506a.508.508,0,0,1-.506-.506c0-.051,0-.076.025-.1A3.883,3.883,0,0,1,130.872,156Zm6.073,1.012h-6.073a2.923,2.923,0,0,0-1.9.709,3,3,0,0,0-.835,1.24h11.539a2.994,2.994,0,0,0-.835-1.24A2.923,2.923,0,0,0,136.945,157.012Z" transform="translate(-127 -154.583)" fill="#fff" fill-rule="evenodd"/>
      <path id="Path_1198" data-name="Path 1198" d="M255,352.506a.506.506,0,0,1,1.012,0V358.3a.506.506,0,1,1-1.012,0Z" transform="translate(-251.761 -345.623)" fill="#fff" fill-rule="evenodd"/>
      <path id="Path_1199" data-name="Path 1199" d="M380,352.506a.506.506,0,0,1,1.012,0V358.3a.506.506,0,0,1-1.012,0Z" transform="translate(-373.598 -345.623)" fill="#fff" fill-rule="evenodd"/>
      <path id="Path_1200" data-name="Path 1200" d="M505,352.506a.506.506,0,0,1,1.012,0V358.3a.506.506,0,1,1-1.012,0Z" transform="translate(-495.435 -345.623)" fill="#fff" fill-rule="evenodd"/>
      <path id="Path_1201" data-name="Path 1201" d="M353.215,100a1.217,1.217,0,0,1,.86,2.075,1.222,1.222,0,0,1-1.721,0,1.215,1.215,0,0,1,.86-2.075Zm.152,1.063a.253.253,0,1,0,.051.152A.36.36,0,0,0,353.366,101.063Z" transform="translate(-346.307 -100)" fill="#fff" fill-rule="evenodd"/>
    </g>
  </g>
</svg>
