<svg xmlns="http://www.w3.org/2000/svg" width="44.097" height="42.259" viewBox="0 0 44.097 42.259">
  <path id="star" d="M9.87,42.752a2.347,2.347,0,0,1-2.284-2.867l2.837-12.5L.8,18.951a2.345,2.345,0,0,1,1.329-4.1l12.73-1.156L19.894,1.917a2.344,2.344,0,0,1,4.31,0l5.033,11.78L41.965,14.85a2.346,2.346,0,0,1,1.332,4.1l-9.621,8.436,2.837,12.5a2.343,2.343,0,0,1-3.487,2.532l-10.977-6.56L11.072,42.419a2.349,2.349,0,0,1-1.2.333ZM22.049,33.03a2.349,2.349,0,0,1,1.2.332l10.359,6.2L30.933,27.763a2.344,2.344,0,0,1,.743-2.284l9.084-7.967L28.741,16.421A2.341,2.341,0,0,1,26.793,15L22.049,3.886,17.3,15a2.335,2.335,0,0,1-1.942,1.415L3.337,17.509l9.084,7.967a2.339,2.339,0,0,1,.743,2.286L10.488,39.556l10.359-6.194a2.349,2.349,0,0,1,1.2-.332ZM14.764,13.922a.005.005,0,0,1,0,0Zm14.567-.005,0,0S29.333,13.918,29.331,13.917Zm0,0" transform="translate(-0.001 -0.492)" fill="#ff4100"/>
</svg>
