<svg xmlns="http://www.w3.org/2000/svg" width="47.214" height="42.345" viewBox="0 0 47.214 42.345">
  <g id="upload-big-arrow" transform="translate(0 -23.714)">
    <g id="Group_16" data-name="Group 16" transform="translate(10.721 23.714)">
      <path id="Path_13" data-name="Path 13" d="M106.385,38.555h4.778V52.729a2.6,2.6,0,0,0,2.6,2.6h7.1a2.6,2.6,0,0,0,2.6-2.6V38.555h4.776a1.954,1.954,0,0,0,1.381-3.337L118.7,24.285a1.959,1.959,0,0,0-2.765,0L105,35.218a1.955,1.955,0,0,0,1.381,3.337Z" transform="translate(-104.431 -23.714)" fill="#ff4100"/>
    </g>
    <g id="Group_17" data-name="Group 17" transform="translate(0 43.867)">
      <path id="Path_14" data-name="Path 14" d="M44.866,220.029a2.347,2.347,0,0,0-2.346,2.348v9.816a5.34,5.34,0,0,1-5.334,5.333H10.028A5.338,5.338,0,0,1,4.7,232.192v-9.816a2.348,2.348,0,1,0-4.7,0v9.816A10.039,10.039,0,0,0,10.028,242.22H37.186a10.039,10.039,0,0,0,10.028-10.028v-9.816A2.347,2.347,0,0,0,44.866,220.029Z" transform="translate(0 -220.029)" fill="#ff4100"/>
    </g>
  </g>
</svg>
